<svg xmlns="http://www.w3.org/2000/svg" width="82" height="66">
  <path d="M76 9H51.5V3.503A3.506 3.506 0 0 0 47.997 0H34.002A3.506 3.506 0 0 0 30.5 3.503V9H6a5.506 5.506 0 0 0-5.5 5.5v46.001A5.506 5.506 0 0 0 6 66h70c3.032 0 5.5-2.467 5.5-5.499V14.5c0-3.032-2.468-5.5-5.5-5.5ZM33.5 3.503A.51.51 0 0 1 34.002 3h13.995a.51.51 0 0 1 .503.503V9h-15V3.503Zm-18 38.886A4.505 4.505 0 0 1 10 38a4.505 4.505 0 0 1 5.5-4.389v8.778ZM6 63a2.503 2.503 0 0 1-2.5-2.499V14.5C3.5 13.121 4.622 12 6 12h9.5v18.573a7.717 7.717 0 0 0-1-.073C10.365 30.5 7 33.864 7 38s3.365 7.5 7.5 7.5c.338 0 .67-.03 1-.073V63H6Zm12.5 0V12h2v51h-2Zm5 0V12h35v51h-35Zm38 0V12h2v51h-2Zm5-40.395 5.893 1.578-1.294 4.83-4.599-1.232v-5.176Zm12 37.896A2.502 2.502 0 0 1 76 63h-9.5V30.888l6.72 1.8 2.847-10.625-9.567-2.564V12H76c1.379 0 2.5 1.121 2.5 2.5v46.001Z"/>
  <path d="M55.429 32.121a3.475 3.475 0 0 0-2.123-1.632l-8.693-2.329a3.508 3.508 0 0 0-4.287 2.475l-3.104 11.591a3.475 3.475 0 0 0 .351 2.655 3.482 3.482 0 0 0 2.124 1.632l8.692 2.328a3.507 3.507 0 0 0 4.287-2.474l3.106-11.592a3.486 3.486 0 0 0-.353-2.654zm-2.546 1.878-3.106 11.592a.496.496 0 0 1-.612.353l-8.692-2.328a.5.5 0 0 1-.302-.235.496.496 0 0 1-.052-.378l3.104-11.591a.51.51 0 0 1 .486-.371c.042 0 .084.006.126.018l8.694 2.33a.499.499 0 0 1 .302.233.494.494 0 0 1 .052.377zM36.725 51.126c-1.215 0-2.555.188-3.875.542-1.92.515-3.658 1.343-4.893 2.33-2.119 1.694-2.079 3.274-1.867 4.065.459 1.712 2.348 2.692 5.181 2.692 1.215 0 2.554-.187 3.873-.541 3.93-1.055 7.513-3.591 6.759-6.396-.459-1.711-2.346-2.692-5.178-2.692zm-2.358 6.192c-1.069.286-2.14.438-3.096.438-1.602 0-2.224-.408-2.277-.422.045-.446 1.49-1.927 4.634-2.771 1.069-.287 2.141-.438 3.097-.438 1.602 0 2.223.407 2.275.421-.045.447-1.489 1.928-4.633 2.772zm4.696-29.063-3.542-12.507-10.584 2.998 3.543 12.507 10.583-2.998zm-5.611-8.804 1.908 6.735-4.811 1.363-1.908-6.735 4.811-1.363z"/>
</svg>
