<svg xmlns="http://www.w3.org/2000/svg" width="62" height="92">
  <path d="M26 32.999c-9.098 0-16.5 7.402-16.5 16.5 0 9.098 7.402 16.5 16.5 16.5 9.098 0 16.5-7.402 16.5-16.5 0-9.098-7.401-16.5-16.5-16.5Zm8.371 5.928a13.13 13.13 0 0 1-1.698 1.221 17.645 17.645 0 0 0-1.279-3.017 13.511 13.511 0 0 1 2.977 1.796ZM26 35.999c1.248 0 2.839 1.979 3.888 5.397a12.979 12.979 0 0 1-3.888.603c-1.328 0-2.636-.216-3.885-.607 1.048-3.416 2.638-5.393 3.885-5.393Zm-10.52 5.064c.92.732 2.201 1.623 3.094 2.092a32.975 32.975 0 0 0-.54 4.845h-5.446a13.449 13.449 0 0 1 2.892-6.937Zm-2.891 9.936h5.446a32.9 32.9 0 0 0 .558 4.951 15.946 15.946 0 0 0-3.059 2.061 13.43 13.43 0 0 1-2.945-7.012Zm5.107 9.122a12.99 12.99 0 0 1 1.668-1.171 17.535 17.535 0 0 0 1.243 2.917 13.553 13.553 0 0 1-2.911-1.746Zm1.632-19.972a12.98 12.98 0 0 1-1.708-1.215 13.51 13.51 0 0 1 2.987-1.804 17.668 17.668 0 0 0-1.279 3.019ZM26 62.999c-1.236 0-2.807-1.941-3.855-5.299 1.24-.387 2.54-.592 3.856-.592 1.323 0 2.619.208 3.855.592-1.048 3.358-2.62 5.299-3.856 5.299Zm4.557-8.227a15.981 15.981 0 0 0-4.556-.664c-1.553 0-3.085.24-4.554.679a29.375 29.375 0 0 1-.413-3.788h9.933a29.528 29.528 0 0 1-.41 3.773Zm-9.523-6.773c.059-1.321.2-2.546.395-3.681a15.98 15.98 0 0 0 4.571.681c1.567 0 3.104-.232 4.574-.669.193 1.131.334 2.352.393 3.669h-9.933Zm10.36 13.868c.47-.866.891-1.84 1.246-2.925.582.347 1.136.742 1.662 1.181a13.548 13.548 0 0 1-2.908 1.744Zm5.064-3.846a15.966 15.966 0 0 0-3.047-2.087c.297-1.528.485-3.186.555-4.936h5.445a13.422 13.422 0 0 1-2.953 7.023Zm-2.492-10.022a32.874 32.874 0 0 0-.538-4.835 16.004 16.004 0 0 0 3.081-2.12 13.42 13.42 0 0 1 2.902 6.955h-5.445Z"/>
  <path d="M10 72h32v3H10z"/>
  <path d="M18 77h16v3H18z"/>
  <path d="M45.997 15.999h3v3h-3z"/>
  <path d="M39.997 15.999h3v3h-3z"/>
  <path d="M33.997 15.999h3v3h-3z"/>
  <path d="M51.997 15.999h3v3h-3z"/>
  <path d="M62 3.499C62 1.569 60.43 0 58.5 0h-31C25.57 0 24 1.569 24 3.499V13.5c0 1.574.665 2.996 1.729 3.999a5.487 5.487 0 0 0-1.71 3.651L1.343 26H0v66h46.5c3.032 0 5.5-2.468 5.5-5.5V74h6.5c1.93 0 3.5-1.57 3.5-3.5V21.499a5.487 5.487 0 0 0-1.729-4A5.483 5.483 0 0 0 62 13.5V3.499ZM24 24.222V26h-8.316L24 24.222ZM49 86.5c0 1.379-1.121 2.5-2.5 2.5H3V29h43.5c1.379 0 2.5 1.121 2.5 2.5v55Zm10-73a2.502 2.502 0 0 1-2.5 2.499v3c1.379 0 2.5 1.121 2.5 2.5V70.5c0 .271-.229.5-.5.5H52V31.5c0-3.032-2.468-5.5-5.5-5.5H27v-4.501c0-1.379 1.122-2.5 2.5-2.5h1.498v-3H29.5A2.503 2.503 0 0 1 27 13.5V3.499A.5.5 0 0 1 27.5 3h31a.5.5 0 0 1 .5.499V13.5Z"/>
</svg>
