<svg xmlns="http://www.w3.org/2000/svg" width="90" height="90">
  <path d="M89.537 26.809 63.191.462 50.137 13.517 37.103 6.301 25.57 27.13a4.294 4.294 0 0 0-.394 3.207 4.33 4.33 0 0 0-2.51 2.037l-10.686 19.3L.463 63.191l3.309 3.31-3.162 5.71 19.881 11.008 6.318 6.319 37.95-37.952a4.84 4.84 0 0 0 1.427-3.45c0-.048 0-.095-.002-.144a4.831 4.831 0 0 0 3.594-1.424l19.759-19.759Zm-64.543 6.854c.429-.774 1.481-1.085 2.267-.65l1.288-2.329a1.65 1.65 0 0 1-.792-.998 1.65 1.65 0 0 1 .142-1.267l10.243-18.5 10.037 5.558-4.746 4.747a4.843 4.843 0 0 0-1.424 3.594c-1.338-.017-2.641.471-3.595 1.424l-19.62 19.617 6.2-11.196ZM4.226 71.172l1.503-2.714 7.946 7.946-9.449-5.232ZM64.765 44.69l-1.613-1.613-1.882 1.882 1.608 1.609c.416.417.646.974.646 1.567a2.2 2.2 0 0 1-.646 1.568l-36.069 36.07L4.226 63.191l36.069-36.069c.834-.833 2.302-.833 3.137 0l.901.901 1.882-1.882-.904-.903a2.202 2.202 0 0 1-.645-1.565c0-.594.229-1.151.647-1.568L63.191 4.226l22.582 22.583-17.877 17.877c-.833.831-2.296.835-3.131.004Z"/>
  <path d="m48.096 28.023 1.881 1.883-1.882 1.88-1.88-1.882z"/>
  <path d="m49.977 33.669 1.881-1.882 1.883 1.882-1.882 1.882z"/>
  <path d="m53.742 37.433 1.882-1.882 1.882 1.883-1.882 1.881z"/>
  <path d="m59.388 43.077-1.882-1.882 1.882-1.881 1.882 1.881z"/>
  <path d="m10.498 65.7 32.597-32.598 1.882 1.882-32.598 32.598z"/>
  <path d="M15.518 70.716 28.684 57.55l1.881 1.882L17.4 72.598z"/>
  <path d="m36.875 53.126-4.946 4.946-1.882-1.882 4.947-4.946z"/>
  <path d="m24.298 79.501-1.881-1.882 20.077-20.07 1.881 1.881z"/>
  <path d="m41.863 44.373 1.882 1.883-4.947 4.945-1.882-1.882z"/>
  <path d="m45.072 44.928-1.881-1.881 4.947-4.947 1.882 1.882z"/>
  <path d="M78.888 29.518V22.71l-8.872-4.436v-4.501a3.996 3.996 0 0 0-3.991-3.992h-.888a3.996 3.996 0 0 0-3.992 3.992v4.057l-9.758 4.879v6.808L61.253 28l.207 2.834-2.986 1.354V38.2l3.477-.654.176 2.398h6.847l.189-2.408 3.524.664v-6.011l-2.998-1.36.212-2.692 8.987 1.381Zm-8.864 4.386v1.086l-3.284-.618-.228 2.91H64.6l-.212-2.904-3.252.612v-1.086l3.114-1.413-.553-7.56-9.649 1.485v-2.063l9.759-4.879v-5.702c0-.733.596-1.331 1.33-1.331h.888c.733 0 1.33.597 1.33 1.331v6.145l8.871 4.436v2.063l-8.755-1.347-.582 7.412 3.135 1.423Z"/>
</svg>
