<svg xmlns="http://www.w3.org/2000/svg" width="98" height="80">
  <path d="M97.059 19.401 62.097 3.624V.75h-3v2.854L23.355 19.396l.338 1.601-.093.007c.317 4.13 4.61 7.365 9.772 7.365 3.742 0 6.998-1.695 8.646-4.178 2.516 3.571 9.728 5.528 16.923 5.745V57.25H9.426a4.49 4.49 0 0 0-4.484 4.484c0 .534.109 1.039.282 1.515H.941v7.969h3v8.032h8v-8.032H58.94v5.032h-7v3h17.001v-3H61.94v-5.032h18.001v8.032h8v-8.032h3v-7.969h-6.999v-8.545l1.502-.867a4.451 4.451 0 0 0 2.086-2.724 4.446 4.446 0 0 0-.444-3.401 4.503 4.503 0 0 0-3.893-2.24 4.47 4.47 0 0 0-2.233.599L61.94 57.052V29.93c7.202-.272 14.376-2.308 16.735-5.901 1.694 2.373 4.88 3.966 8.498 3.966 5.399 0 9.792-3.524 9.792-7.855 0-.082-.01-.163-.014-.245l.108-.494Zm-17.083-.132L69.41 10.216l20.062 9.053h-9.496Zm-4.61 0H45.797L60.581 6.602l14.785 12.667Zm-23.401-9.235-10.777 9.234h-10.12l20.897-9.234ZM33.372 25.369c-2.812 0-5.302-1.299-6.311-3.101h12.636c-.987 1.812-3.447 3.101-6.325 3.101ZM8.941 76.25h-2v-5.032h2v5.032Zm76 0h-2v-5.032h2v5.032Zm3-8.032h-84v-1.969h84v1.969Zm-6.999-4.969h-11.8l11.8-6.813v6.813Zm1.518-14.581c.687-.395 1.639-.132 2.028.545.196.34.248.739.145 1.124a1.475 1.475 0 0 1-.688.902L63.532 63.024a1.452 1.452 0 0 1-.735.197l-.26-.007-53.111.003a1.485 1.485 0 0 1-1.484-1.483c0-.818.666-1.484 1.484-1.484h52.976L82.46 48.668ZM60.279 26.962c-8.308 0-14.645-2.357-15.949-4.693h31.9c-1.244 2.179-7.082 4.693-15.951 4.693Zm26.895-1.968c-2.612 0-4.948-1.122-6.076-2.726h12.171c-1.107 1.612-3.419 2.726-6.095 2.726Z"/>
</svg>
