<svg xmlns="http://www.w3.org/2000/svg" width="100" height="70">
  <path d="M97.5 55.051v-5.548c0-2.955-.442-5.809-1.255-8.503h.085l-.599-1.558c-.047-.128-.098-.254-.146-.382l-.038-.099-.016-.037a29.227 29.227 0 0 0-.761-1.794l-.001-.002a29.696 29.696 0 0 0-1.905-3.472l-.004-.006a29.727 29.727 0 0 0-6.639-7.323l-.007-.006-.407-.321h-.002a29.347 29.347 0 0 0-17.808-6H57.499v-3.288C65.9 15.442 73.171 13.084 73.171 9c0-7.119-22.083-9-33.76-9-12.069 0-23.184 1.559-29.005 4.067l-.906.391v9.085l.906.391c4.008 1.727 10.526 3.003 18.138 3.631V20H17.003C10.108 20 4.5 25.608 4.5 32.503V55H3.003A2.506 2.506 0 0 0 .5 57.503v1.994A2.506 2.506 0 0 0 3.003 62h9.127c.724 4.526 4.644 8 9.37 8 4.726 0 8.646-3.474 9.37-8h34.76c.724 4.526 4.644 8 9.37 8 5.238 0 9.5-4.262 9.5-9.5S80.238 51 75 51c-4.727 0-8.646 3.474-9.37 8H30.87c-.724-4.526-4.644-8-9.37-8-4.726 0-8.646 3.474-9.37 8H3.5v-1h6v-3h-2V41h15.07v-3H7.5v-5.497c0-5.24 4.263-9.503 9.503-9.503h50.994c4.408 0 8.565 1.088 12.227 3H69.999c-1.93 0-3.5 1.57-3.5 3.5v8c0 1.93 1.57 3.5 3.5 3.5h23.094a26.393 26.393 0 0 1 1.407 8.503V55h-7v3h9v1h-10v3h10.497a2.506 2.506 0 0 0 2.503-2.503v-1.994c0-1.208-.86-2.219-2-2.452ZM75 54c3.584 0 6.5 2.916 6.5 6.5S78.584 67 75 67a6.508 6.508 0 0 1-6.5-6.5c0-3.584 2.916-6.5 6.5-6.5Zm-53.5 0c3.584 0 6.5 2.916 6.5 6.5S25.084 67 21.5 67a6.508 6.508 0 0 1-6.5-6.5c0-3.584 2.916-6.5 6.5-6.5ZM39.411 3c16.916 0 27.293 2.863 30.027 4.973H12.5V6.458C18.189 4.314 28.339 3 39.411 3ZM12.5 10.973h55.288C63.583 12.9 53.896 15 39.411 15c-11.074 0-21.223-1.314-26.911-3.457v-.57Zm19.044 6.798c2.545.148 5.18.229 7.867.229 4.19 0 9.719-.244 15.088-.884V20H31.544v-2.229ZM69.999 38a.507.507 0 0 1-.5-.5v-8c0-.271.229-.5.5-.5h14.759a26.68 26.68 0 0 1 7.104 9H69.999Z"/>
  <path d="M45.501 37.5v-8c0-1.93-1.57-3.5-3.5-3.5H32c-1.93 0-3.5 1.57-3.5 3.5v8c0 1.93 1.57 3.5 3.5 3.5h10.001c1.93 0 3.5-1.57 3.5-3.5zm-14.001 0v-8c0-.271.229-.5.5-.5h10.001c.271 0 .5.229.5.5v8c0 .271-.229.5-.5.5H32a.507.507 0 0 1-.5-.5zm33.001-8c0-1.93-1.57-3.5-3.5-3.5H51c-1.93 0-3.5 1.57-3.5 3.5v8c0 1.93 1.57 3.5 3.5 3.5h10.001c1.93 0 3.5-1.57 3.5-3.5v-8zm-3 8c0 .271-.229.5-.5.5H51a.507.507 0 0 1-.5-.5v-8c0-.271.229-.5.5-.5h10.001c.271 0 .5.229.5.5v8zM75 64.5c2.206 0 4-1.794 4-4s-1.794-4-4-4-4 1.794-4 4 1.794 4 4 4zm0-5a1 1 0 1 1 0 2 1 1 0 0 1 0-2zm-53.5 5c2.206 0 4-1.794 4-4s-1.794-4-4-4-4 1.794-4 4 1.794 4 4 4zm0-5a1 1 0 1 1 0 2 1 1 0 0 1 0-2z"/>
  <path d="M32.5 55h31v3h-31z"/>
</svg>
