<svg xmlns="http://www.w3.org/2000/svg" width="90" height="90">
  <path d="m88.794 38.934 1.115-2.785-32.922-13.185a5.365 5.365 0 0 0-.202-3.366 5.385 5.385 0 0 0-3.016-3.074l-15.708-6.507a5.47 5.47 0 0 0-6.979 2.572L1.206.625.091 3.41l36.142 14.475-8.17 30.493H12.97L8.654 68.876l4.316 20.5h58.434l4.316-20.498v-.002l-2.65-12.585-1.667-7.914H57.299L50.68 23.669l38.114 15.265ZM36.913 12.789l15.709 6.507c.669.277 1.104.722 1.37 1.397.153.392.2.765.163 1.137l-20.271-8.117a2.487 2.487 0 0 1 3.029-.924Zm15.136 27.587H33.313l1.876-7h14.985l1.875 7ZM14.351 56.377h7.836a.5.5 0 0 1 .5.498v11.002a.5.5 0 0 1-.5.498H11.825l2.526-11.998Zm58.197 11.998H62.187a.5.5 0 0 1-.5-.498V56.875a.5.5 0 0 1 .5-.498h7.836l2.525 11.998Zm-3.157-14.998h-7.204c-1.93 0-3.5 1.568-3.5 3.498v11.002c0 1.93 1.57 3.498 3.5 3.498h9.94l-3.157 15H15.403l-3.157-15h9.94c1.93 0 3.5-1.568 3.5-3.498V56.875c0-1.93-1.57-3.498-3.5-3.498h-7.204l.421-2H68.97l.421 2Zm-38.222-5 1.34-5h20.344l1.34 5H31.169ZM49.37 30.376H35.992l3.047-11.369 8.16 3.269 2.171 8.1Z"/>
  <path d="M31.187 71.375h22c1.93 0 3.5-1.568 3.5-3.498V56.875c0-1.93-1.57-3.498-3.5-3.498h-22c-1.93 0-3.5 1.568-3.5 3.498v11.002c0 1.93 1.57 3.498 3.5 3.498Zm-.5-14.5c0-.27.229-.498.5-.498h22c.271 0 .5.229.5.498v11.002c0 .27-.229.498-.5.498h-22a.506.506 0 0 1-.5-.498V56.875Z"/>
  <path d="M18.778 79.375H65.65v3H18.778z"/>
</svg>
